<svg xmlns="http://www.w3.org/2000/svg" width="30" height="30" viewBox="0 0 30 30">
  <g id="Iconly_Light-Outline_Play" data-name="Iconly/Light-Outline/Play" transform="translate(-2 -2)">
    <g id="Play" transform="translate(2 2)">
      <path id="Combined-Shape" d="M15,0A15,15,0,1,1,0,15,15.017,15.017,0,0,1,15,0Zm0,2.2A12.8,12.8,0,1,0,27.8,15,12.819,12.819,0,0,0,15,2.2Zm-.613,7.7c.761.318,6.1,3.053,6.1,5.1,0,1.917-4.806,4.6-6.034,5.11a4.2,4.2,0,0,1-1.535.386,1.462,1.462,0,0,1-1.076-.417c-.236-.233-.865-.855-.868-4.951,0-4.349.653-5,.868-5.211C12.608,9.153,13.855,9.672,14.387,9.895Zm-1.02,1.939a26.077,26.077,0,0,0,0,6.354A16.654,16.654,0,0,0,18.18,15,17.492,17.492,0,0,0,13.367,11.834Z" fill="#fff" fill-rule="evenodd"/>
    </g>
  </g>
</svg>
